<svg xmlns="http://www.w3.org/2000/svg" xmlns:xlink="http://www.w3.org/1999/xlink" width="200" zoomAndPan="magnify" viewBox="0 0 150 30.000001" height="40" preserveAspectRatio="xMidYMid meet" version="1.0"><defs><g/><clipPath id="e5fcebd53d"><path d="M 2.417969 0 L 147.578125 0 L 147.578125 29.03125 L 2.417969 29.03125 Z M 2.417969 0 " clip-rule="nonzero"/></clipPath><clipPath id="a554363b7c"><path d="M 10 6 L 20 6 L 20 25 L 10 25 Z M 10 6 " clip-rule="nonzero"/></clipPath><clipPath id="2d67e5ba8c"><path d="M 8.949219 5.378906 L 13.773438 3.78125 L 20.394531 23.761719 L 15.570312 25.359375 Z M 8.949219 5.378906 " clip-rule="nonzero"/></clipPath><clipPath id="7c695b61aa"><path d="M 8.949219 5.378906 L 13.773438 3.78125 L 20.394531 23.761719 L 15.570312 25.359375 Z M 8.949219 5.378906 " clip-rule="nonzero"/></clipPath><clipPath id="f01841011a"><path d="M 8.949219 5.378906 L 13.773438 3.78125 L 20.394531 23.761719 L 15.570312 25.359375 Z M 8.949219 5.378906 " clip-rule="nonzero"/></clipPath><clipPath id="5d9bd1a675"><path d="M 13 12 L 19 12 L 19 25 L 13 25 Z M 13 12 " clip-rule="nonzero"/></clipPath><clipPath id="08371499c7"><path d="M 8.949219 5.378906 L 13.773438 3.78125 L 20.394531 23.761719 L 15.570312 25.359375 Z M 8.949219 5.378906 " clip-rule="nonzero"/></clipPath><clipPath id="753566e570"><path d="M 8.949219 5.378906 L 13.773438 3.78125 L 20.394531 23.761719 L 15.570312 25.359375 Z M 8.949219 5.378906 " clip-rule="nonzero"/></clipPath><clipPath id="4fff6a8357"><path d="M 8.949219 5.378906 L 13.773438 3.78125 L 20.394531 23.761719 L 15.570312 25.359375 Z M 8.949219 5.378906 " clip-rule="nonzero"/></clipPath><clipPath id="9bca759ae6"><path d="M 13 12 L 16 12 L 16 16 L 13 16 Z M 13 12 " clip-rule="nonzero"/></clipPath><clipPath id="d1ec6089c1"><path d="M 8.949219 5.378906 L 13.773438 3.78125 L 20.394531 23.761719 L 15.570312 25.359375 Z M 8.949219 5.378906 " clip-rule="nonzero"/></clipPath><clipPath id="c651e8658d"><path d="M 8.949219 5.378906 L 13.773438 3.78125 L 20.394531 23.761719 L 15.570312 25.359375 Z M 8.949219 5.378906 " clip-rule="nonzero"/></clipPath><clipPath id="8c883fef88"><path d="M 8.949219 5.378906 L 13.773438 3.78125 L 20.394531 23.761719 L 15.570312 25.359375 Z M 8.949219 5.378906 " clip-rule="nonzero"/></clipPath><clipPath id="3531e6a907"><path d="M 9 4 L 15 4 L 15 10 L 9 10 Z M 9 4 " clip-rule="nonzero"/></clipPath><clipPath id="1b006ca327"><path d="M 8.949219 5.378906 L 13.773438 3.78125 L 20.394531 23.761719 L 15.570312 25.359375 Z M 8.949219 5.378906 " clip-rule="nonzero"/></clipPath><clipPath id="a7be3e0dad"><path d="M 8.949219 5.378906 L 13.773438 3.78125 L 20.394531 23.761719 L 15.570312 25.359375 Z M 8.949219 5.378906 " clip-rule="nonzero"/></clipPath><clipPath id="3740f85d67"><path d="M 8.949219 5.378906 L 13.773438 3.78125 L 20.394531 23.761719 L 15.570312 25.359375 Z M 8.949219 5.378906 " clip-rule="nonzero"/></clipPath><clipPath id="491299e002"><path d="M 9.152344 5.992188 L 14 4.386719 L 15.277344 8.238281 L 10.429688 9.84375 Z M 9.152344 5.992188 " clip-rule="nonzero"/></clipPath><clipPath id="8c528f4292"><path d="M 9.152344 5.992188 L 13.976562 4.394531 L 15.25 8.246094 L 10.429688 9.84375 Z M 9.152344 5.992188 " clip-rule="nonzero"/></clipPath><clipPath id="812620d42f"><path d="M 9 4 L 20 4 L 20 23 L 9 23 Z M 9 4 " clip-rule="nonzero"/></clipPath><clipPath id="fe336b6d57"><path d="M 8.949219 5.378906 L 13.773438 3.78125 L 20.394531 23.761719 L 15.570312 25.359375 Z M 8.949219 5.378906 " clip-rule="nonzero"/></clipPath><clipPath id="d842ea02de"><path d="M 8.949219 5.378906 L 13.773438 3.78125 L 20.394531 23.761719 L 15.570312 25.359375 Z M 8.949219 5.378906 " clip-rule="nonzero"/></clipPath><clipPath id="8f545290f7"><path d="M 8.949219 5.378906 L 13.773438 3.78125 L 20.394531 23.761719 L 15.570312 25.359375 Z M 8.949219 5.378906 " clip-rule="nonzero"/></clipPath></defs><g clip-path="url(#e5fcebd53d)"><path fill="#ffffff" d="M 2.417969 0 L 147.582031 0 L 147.582031 36.289062 L 2.417969 36.289062 Z M 2.417969 0 " fill-opacity="1" fill-rule="nonzero"/><path fill="#ffffff" d="M 2.417969 0 L 147.582031 0 L 147.582031 29.03125 L 2.417969 29.03125 Z M 2.417969 0 " fill-opacity="1" fill-rule="nonzero"/><path fill="#ffffff" d="M 2.417969 0 L 147.582031 0 L 147.582031 29.03125 L 2.417969 29.03125 Z M 2.417969 0 " fill-opacity="1" fill-rule="nonzero"/></g><g fill="#293241" fill-opacity="1"><g transform="translate(24.026167, 19.887077)"><g><path d="M 0.230469 0 L 2.582031 0 L 2.988281 -1.117188 L 6.425781 -1.117188 L 6.847656 0 L 9.183594 0 L 4.816406 -10.75 L 4.597656 -10.75 Z M 3.742188 -3.0625 L 4.714844 -5.761719 L 5.660156 -3.0625 Z M 3.742188 -3.0625 "/></g></g></g><g fill="#293241" fill-opacity="1"><g transform="translate(33.497844, 19.887077)"><g><path d="M 1.160156 0 L 5.265625 0 C 6.949219 0 8.328125 -1.378906 8.328125 -3.121094 C 8.328125 -3.933594 7.9375 -4.730469 7.253906 -5.195312 C 7.90625 -5.644531 8.183594 -6.457031 8.210938 -7.238281 C 8.253906 -9.066406 7.109375 -10.386719 5.265625 -10.386719 L 1.160156 -10.386719 Z M 3.25 -8.3125 L 5.09375 -8.3125 C 5.6875 -8.3125 6.050781 -7.847656 6.050781 -7.269531 C 6.050781 -6.703125 5.6875 -6.222656 5.09375 -6.222656 L 3.25 -6.222656 Z M 3.25 -4.148438 L 5.09375 -4.148438 C 5.6875 -4.148438 6.136719 -3.699219 6.136719 -3.121094 C 6.136719 -2.539062 5.6875 -2.074219 5.09375 -2.074219 L 3.25 -2.074219 Z M 3.25 -4.148438 "/></g></g></g><g fill="#293241" fill-opacity="1"><g transform="translate(42.50537, 19.887077)"><g><path d="M 8.648438 -0.636719 L 8.648438 -5.195312 L 6.542969 -5.195312 L 6.542969 -2.074219 C 6.355469 -2.046875 6.152344 -2.015625 5.964844 -2.015625 C 1.957031 -2.015625 1.769531 -8.210938 5.964844 -8.355469 C 7.066406 -8.386719 7.734375 -8.152344 8.140625 -7.980469 L 8.386719 -10.082031 C 8.199219 -10.140625 7.195312 -10.503906 5.964844 -10.460938 C -1.234375 -10.199219 -0.886719 0.0585938 5.964844 0.0585938 C 6.949219 0.0585938 7.847656 -0.1875 8.648438 -0.636719 Z M 8.648438 -0.636719 "/></g></g></g><g fill="#293241" fill-opacity="1"><g transform="translate(52.267144, 19.887077)"><g/></g></g><g fill="#293241" fill-opacity="1"><g transform="translate(56.386529, 19.887077)"><g><path d="M 3.234375 0 L 3.234375 -10.375 L 1.160156 -10.375 L 1.160156 0 Z M 3.234375 0 "/></g></g></g><g fill="#293241" fill-opacity="1"><g transform="translate(60.796012, 19.887077)"><g><path d="M 3.234375 -5.644531 L 8.488281 0.21875 L 9.039062 0.21875 L 9.039062 -10.359375 L 6.949219 -10.359375 L 6.949219 -4.496094 L 1.710938 -10.589844 L 1.160156 -10.589844 L 1.160156 0 L 3.234375 0 Z M 3.234375 -5.644531 "/></g></g></g><g fill="#293241" fill-opacity="1"><g transform="translate(71.007438, 19.887077)"><g><path d="M 4.949219 0 L 4.949219 -8.300781 L 7.53125 -8.300781 L 7.53125 -10.359375 L 0.289062 -10.359375 L 0.289062 -8.300781 L 2.871094 -8.300781 L 2.871094 0 Z M 4.949219 0 "/></g></g></g><g fill="#293241" fill-opacity="1"><g transform="translate(78.941605, 19.887077)"><g><path d="M 6.527344 0 L 6.527344 -2.074219 L 3.234375 -2.074219 L 3.234375 -4.148438 L 5.964844 -4.148438 L 5.964844 -6.222656 L 3.234375 -6.222656 L 3.234375 -8.300781 L 6.355469 -8.300781 L 6.355469 -10.375 L 1.160156 -10.375 L 1.160156 0 Z M 6.527344 0 "/></g></g></g><g fill="#293241" fill-opacity="1"><g transform="translate(86.252054, 19.887077)"><g><path d="M 6.324219 0 L 8.675781 0 L 6.269531 -4.28125 C 9.316406 -5.164062 8.953125 -10.375 5.253906 -10.375 L 1.160156 -10.375 L 1.160156 0 L 3.234375 0 L 3.234375 -3.960938 L 4.238281 -3.960938 Z M 3.234375 -5.976562 L 3.234375 -8.300781 L 5.0625 -8.300781 C 6.472656 -8.300781 6.472656 -5.976562 5.0625 -5.976562 Z M 3.234375 -5.976562 "/></g></g></g><g fill="#293241" fill-opacity="1"><g transform="translate(95.143537, 19.887077)"><g><path d="M 3.234375 0 L 3.234375 -3.960938 L 5.238281 -3.960938 C 9.257812 -3.960938 9.269531 -10.359375 5.238281 -10.359375 L 1.160156 -10.359375 L 1.160156 0 Z M 3.234375 -5.976562 L 3.234375 -8.300781 L 5.0625 -8.300781 C 6.457031 -8.300781 6.457031 -5.976562 5.0625 -5.976562 Z M 3.234375 -5.976562 "/></g></g></g><g fill="#293241" fill-opacity="1"><g transform="translate(103.889972, 19.887077)"><g><path d="M 6.324219 0 L 8.675781 0 L 6.269531 -4.28125 C 9.316406 -5.164062 8.953125 -10.375 5.253906 -10.375 L 1.160156 -10.375 L 1.160156 0 L 3.234375 0 L 3.234375 -3.960938 L 4.238281 -3.960938 Z M 3.234375 -5.976562 L 3.234375 -8.300781 L 5.0625 -8.300781 C 6.472656 -8.300781 6.472656 -5.976562 5.0625 -5.976562 Z M 3.234375 -5.976562 "/></g></g></g><g fill="#293241" fill-opacity="1"><g transform="translate(112.781455, 19.887077)"><g><path d="M 6.527344 0 L 6.527344 -2.074219 L 3.234375 -2.074219 L 3.234375 -4.148438 L 5.964844 -4.148438 L 5.964844 -6.222656 L 3.234375 -6.222656 L 3.234375 -8.300781 L 6.355469 -8.300781 L 6.355469 -10.375 L 1.160156 -10.375 L 1.160156 0 Z M 6.527344 0 "/></g></g></g><g fill="#293241" fill-opacity="1"><g transform="translate(120.091904, 19.887077)"><g><path d="M 4.949219 0 L 4.949219 -8.300781 L 7.53125 -8.300781 L 7.53125 -10.359375 L 0.289062 -10.359375 L 0.289062 -8.300781 L 2.871094 -8.300781 L 2.871094 0 Z M 4.949219 0 "/></g></g></g><g fill="#293241" fill-opacity="1"><g transform="translate(128.026071, 19.887077)"><g><path d="M 6.527344 0 L 6.527344 -2.074219 L 3.234375 -2.074219 L 3.234375 -4.148438 L 5.964844 -4.148438 L 5.964844 -6.222656 L 3.234375 -6.222656 L 3.234375 -8.300781 L 6.355469 -8.300781 L 6.355469 -10.375 L 1.160156 -10.375 L 1.160156 0 Z M 6.527344 0 "/></g></g></g><g fill="#293241" fill-opacity="1"><g transform="translate(135.33652, 19.887077)"><g><path d="M 6.324219 0 L 8.675781 0 L 6.269531 -4.28125 C 9.316406 -5.164062 8.953125 -10.375 5.253906 -10.375 L 1.160156 -10.375 L 1.160156 0 L 3.234375 0 L 3.234375 -3.960938 L 4.238281 -3.960938 Z M 3.234375 -5.976562 L 3.234375 -8.300781 L 5.0625 -8.300781 C 6.472656 -8.300781 6.472656 -5.976562 5.0625 -5.976562 Z M 3.234375 -5.976562 "/></g></g></g><g clip-path="url(#a554363b7c)"><g clip-path="url(#2d67e5ba8c)"><g clip-path="url(#7c695b61aa)"><g clip-path="url(#f01841011a)"><path fill="#d7d8da" d="M 14.261719 6.558594 C 15.929688 11.753906 17.667969 16.796875 19.125 21.988281 C 19.207031 22.269531 19.285156 22.5625 19.257812 22.851562 C 19.222656 23.230469 19.007812 23.5625 18.757812 23.832031 C 18.386719 24.238281 17.914062 24.5625 17.378906 24.652344 C 16.84375 24.742188 16.242188 24.570312 15.871094 24.136719 C 15.628906 23.851562 15.5 23.480469 15.378906 23.121094 C 13.71875 18.234375 12.0625 13.34375 10.402344 8.457031 " fill-opacity="1" fill-rule="nonzero"/></g></g></g></g><g clip-path="url(#5d9bd1a675)"><g clip-path="url(#08371499c7)"><g clip-path="url(#753566e570)"><g clip-path="url(#4fff6a8357)"><path fill="#d33439" d="M 15.800781 12.699219 C 16.648438 15.53125 17.707031 18.453125 18.421875 20.96875 C 18.539062 21.386719 18.65625 21.808594 18.671875 22.238281 C 18.6875 22.667969 18.589844 23.113281 18.320312 23.425781 C 18.035156 23.761719 17.597656 23.90625 17.167969 23.996094 C 16.976562 24.035156 16.773438 24.066406 16.582031 24.003906 C 16.34375 23.921875 16.164062 23.707031 16.019531 23.484375 C 15.636719 22.902344 15.398438 22.230469 15.167969 21.570312 C 14.4375 19.46875 13.734375 17.359375 13.050781 15.242188 C 12.957031 14.953125 13.152344 14.617188 13.386719 14.445312 C 13.546875 14.328125 13.75 14.28125 13.9375 14.210938 C 14.339844 14.058594 14.695312 13.78125 14.945312 13.417969 C 15.058594 13.257812 15.152344 13.074219 15.292969 12.9375 C 15.433594 12.800781 15.613281 12.632812 15.800781 12.699219 " fill-opacity="1" fill-rule="nonzero"/></g></g></g></g><g clip-path="url(#9bca759ae6)"><g clip-path="url(#d1ec6089c1)"><g clip-path="url(#c651e8658d)"><g clip-path="url(#8c883fef88)"><path fill="#b22f30" d="M 15.796875 13.363281 C 15.6875 13.65625 15.390625 13.8125 15.148438 14 C 14.964844 14.136719 14.800781 14.304688 14.667969 14.496094 C 14.496094 14.738281 14.367188 15.019531 14.136719 15.199219 C 13.832031 15.441406 13.371094 15.445312 13.042969 15.210938 C 12.972656 14.929688 13.160156 14.609375 13.386719 14.445312 C 13.546875 14.328125 13.75 14.28125 13.9375 14.210938 C 14.339844 14.058594 14.695312 13.78125 14.945312 13.417969 C 15.058594 13.257812 15.152344 13.074219 15.292969 12.9375 C 15.429688 12.800781 15.605469 12.636719 15.792969 12.695312 C 15.890625 12.984375 15.875 13.152344 15.796875 13.363281 " fill-opacity="1" fill-rule="nonzero"/></g></g></g></g><g clip-path="url(#3531e6a907)"><g clip-path="url(#1b006ca327)"><g clip-path="url(#a7be3e0dad)"><g clip-path="url(#3740f85d67)"><g clip-path="url(#491299e002)"><g clip-path="url(#8c528f4292)"><path fill="#7aa1b5" d="M 14.054688 4.625 C 14.234375 5.222656 14.617188 6.421875 14.800781 7.015625 C 14.839844 7.140625 14.875 7.269531 14.867188 7.394531 C 14.878906 7.519531 14.851562 7.652344 14.796875 7.761719 C 14.6875 7.976562 14.492188 8.128906 14.300781 8.261719 C 13.445312 8.84375 12.449219 9.210938 11.421875 9.320312 C 11.0625 9.359375 10.449219 9.378906 10.234375 8.96875 C 10.226562 8.957031 10.21875 8.945312 10.214844 8.929688 C 10.136719 8.84375 10.097656 8.726562 10.058594 8.613281 C 9.90625 8.175781 9.554688 7.132812 9.402344 6.695312 C 9.355469 6.554688 9.210938 6.3125 9.285156 6.167969 C 9.355469 6.03125 9.605469 6.027344 9.730469 5.992188 C 9.925781 5.933594 10.101562 5.824219 10.28125 5.726562 C 10.703125 5.5 11.160156 5.339844 11.613281 5.183594 C 12.125 5.007812 12.636719 4.832031 13.164062 4.699219 C 13.410156 4.636719 13.660156 4.582031 13.914062 4.539062 C 13.945312 4.53125 13.980469 4.527344 14.007812 4.546875 C 14.03125 4.5625 14.042969 4.597656 14.054688 4.625 " fill-opacity="1" fill-rule="nonzero"/></g></g></g></g></g></g><g clip-path="url(#812620d42f)"><g clip-path="url(#fe336b6d57)"><g clip-path="url(#d842ea02de)"><g clip-path="url(#8f545290f7)"><path fill="#44759c" d="M 19.089844 21.851562 C 19.0625 21.757812 19.035156 21.664062 19.007812 21.566406 C 18.828125 21.628906 18.195312 21.859375 18.160156 21.871094 C 18.089844 21.898438 18.015625 21.925781 17.972656 21.988281 C 17.925781 22.046875 17.929688 22.152344 17.996094 22.191406 C 18.035156 22.214844 18.808594 21.960938 19.089844 21.851562 Z M 17.449219 20.335938 C 17.472656 20.410156 17.5 20.484375 17.523438 20.558594 C 17.621094 20.523438 18.410156 20.308594 18.621094 20.234375 C 18.597656 20.152344 18.574219 20.066406 18.546875 19.984375 C 18.289062 20.03125 17.464844 20.386719 17.449219 20.335938 Z M 16.933594 18.816406 C 16.910156 18.886719 16.972656 18.960938 17.042969 18.976562 C 17.109375 18.992188 17.175781 18.96875 17.242188 18.945312 C 17.367188 18.894531 18 18.695312 18.144531 18.644531 C 18.121094 18.570312 18.101562 18.5 18.078125 18.425781 C 17.789062 18.445312 16.972656 18.691406 16.933594 18.816406 Z M 17.648438 17.03125 C 17.390625 17.105469 16.636719 17.394531 16.542969 17.425781 C 16.515625 17.433594 16.488281 17.445312 16.476562 17.472656 C 16.445312 17.542969 16.582031 17.59375 16.582031 17.671875 C 16.582031 17.582031 17.433594 17.398438 17.746094 17.339844 C 17.710938 17.238281 17.679688 17.132812 17.648438 17.03125 Z M 17.132812 15.402344 C 16.929688 15.496094 16.242188 15.730469 16.03125 15.792969 C 16.054688 15.863281 16.078125 15.9375 16.101562 16.007812 C 16.316406 15.957031 17.007812 15.746094 17.226562 15.695312 C 17.195312 15.597656 17.164062 15.5 17.132812 15.402344 Z M 15.605469 14.5 C 15.582031 14.542969 15.625 14.605469 15.675781 14.613281 C 15.726562 14.625 15.773438 14.605469 15.820312 14.589844 C 15.941406 14.558594 16.546875 14.414062 16.675781 14.410156 C 16.71875 14.410156 16.765625 14.40625 16.8125 14.402344 C 16.785156 14.324219 16.761719 14.242188 16.734375 14.160156 C 16.460938 14.167969 15.652344 14.414062 15.605469 14.5 Z M 16.351562 12.976562 C 16.316406 12.878906 16.285156 12.777344 16.253906 12.679688 C 15.992188 12.765625 15.195312 13.140625 15.070312 13.203125 C 15.078125 13.261719 15.105469 13.316406 15.148438 13.355469 C 15.195312 13.402344 16.066406 13.09375 16.351562 12.976562 Z M 15.757812 11.164062 C 15.726562 11.175781 15.691406 11.1875 15.652344 11.203125 C 15.597656 11.222656 14.519531 11.617188 14.527344 11.640625 C 14.554688 11.726562 14.585938 11.8125 14.613281 11.898438 C 14.867188 11.808594 15.601562 11.554688 15.855469 11.464844 C 15.824219 11.363281 15.789062 11.261719 15.757812 11.164062 Z M 15.371094 9.980469 C 15.339844 9.890625 15.3125 9.796875 15.28125 9.707031 C 15.007812 9.78125 14.265625 10.039062 14.015625 10.183594 C 13.972656 10.207031 13.925781 10.230469 13.902344 10.273438 C 13.875 10.316406 13.882812 10.382812 13.929688 10.40625 C 13.953125 10.414062 13.980469 10.410156 14.007812 10.402344 C 14.292969 10.335938 15.085938 10.101562 15.371094 9.980469 Z M 13.589844 5.164062 C 13.945312 5.925781 14.652344 7.609375 14.554688 7.640625 C 14.507812 7.65625 14.464844 7.671875 14.417969 7.6875 C 14.191406 7.132812 13.972656 6.574219 13.761719 6.011719 C 13.683594 5.804688 13.539062 5.523438 13.460938 5.253906 C 13.316406 5.34375 13.15625 5.417969 12.996094 5.484375 C 13.136719 5.808594 13.222656 6.191406 13.335938 6.515625 C 13.492188 6.972656 13.648438 7.429688 13.804688 7.886719 C 13.820312 7.929688 13.835938 7.976562 13.824219 8.019531 C 13.816406 8.0625 13.769531 8.101562 13.730469 8.082031 C 13.609375 7.992188 13.515625 7.445312 13.460938 7.292969 C 13.367188 7.019531 13.269531 6.746094 13.171875 6.472656 C 13.085938 6.246094 12.863281 5.851562 12.84375 5.542969 C 12.546875 5.652344 12.25 5.753906 11.945312 5.84375 C 12.308594 6.761719 12.632812 7.695312 12.976562 8.621094 C 12.894531 8.636719 12.8125 8.652344 12.730469 8.667969 C 12.695312 8.675781 12.144531 7.035156 12.089844 6.882812 C 12.003906 6.640625 11.777344 6.242188 11.734375 5.90625 C 11.445312 5.988281 11.15625 6.0625 10.863281 6.128906 C 10.875 6.152344 10.882812 6.171875 10.886719 6.1875 C 11.222656 7.117188 11.554688 8.046875 11.886719 8.976562 C 11.816406 8.992188 11.746094 9.003906 11.675781 9.019531 C 11.652344 9.023438 11.085938 7.304688 11.03125 7.15625 C 10.925781 6.855469 10.726562 6.5 10.679688 6.1875 C 10.679688 6.179688 10.675781 6.175781 10.675781 6.167969 C 10.429688 6.21875 10.183594 6.265625 9.9375 6.300781 C 10.265625 7.242188 10.597656 8.183594 10.925781 9.125 C 10.835938 9.144531 10.746094 9.089844 10.6875 9.015625 C 10.632812 8.941406 10.601562 8.851562 10.574219 8.761719 C 10.40625 8.246094 10.222656 7.734375 10.027344 7.230469 C 9.929688 6.972656 9.824219 6.71875 9.71875 6.460938 C 9.699219 6.417969 9.683594 6.378906 9.667969 6.339844 C 9.511719 6.359375 9.320312 6.351562 9.253906 6.207031 C 9.175781 6.046875 9.316406 5.875 9.445312 5.769531 C 10.578125 4.867188 12.070312 4.765625 13.429688 4.445312 C 13.632812 4.398438 13.890625 4.371094 14.007812 4.558594 C 13.949219 4.8125 13.789062 5.007812 13.589844 5.164062 " fill-opacity="1" fill-rule="nonzero"/></g></g></g></g></svg>