<svg xmlns="http://www.w3.org/2000/svg" xmlns:xlink="http://www.w3.org/1999/xlink" width="200" height="40" preserveAspectRatio="xMidYMid meet" version="1.0" viewBox="0 0 150 30" zoomAndPan="magnify"><defs><clipPath id="5b4409b5c6"><path d="M 15 5.765625 L 21.804688 5.765625 L 21.804688 13 L 15 13 Z M 15 5.765625" clip-rule="nonzero"/></clipPath><clipPath id="79339e04c4"><path d="M 15 15 L 20 15 L 20 22.460938 L 15 22.460938 Z M 15 15" clip-rule="nonzero"/></clipPath><clipPath id="726b719d5d"><path d="M 7.289062 5.765625 L 14 5.765625 L 14 8 L 7.289062 8 Z M 7.289062 5.765625" clip-rule="nonzero"/></clipPath><clipPath id="ee5b4e5b5f"><path d="M 8 5.765625 L 14 5.765625 L 14 8 L 8 8 Z M 8 5.765625" clip-rule="nonzero"/></clipPath></defs><g fill="#293241" fill-opacity="1"><g><g><path d="M 0.230469 0 L 2.582031 0 L 2.988281 -1.117188 L 6.425781 -1.117188 L 6.847656 0 L 9.183594 0 L 4.816406 -10.75 L 4.597656 -10.75 Z M 3.742188 -3.0625 L 4.714844 -5.761719 L 5.660156 -3.0625 Z M 3.742188 -3.0625" transform="translate(24.026167, 19.887077)"/></g></g></g><g fill="#293241" fill-opacity="1"><g><g><path d="M 1.160156 0 L 5.265625 0 C 6.949219 0 8.328125 -1.378906 8.328125 -3.121094 C 8.328125 -3.933594 7.9375 -4.730469 7.253906 -5.195312 C 7.90625 -5.644531 8.183594 -6.457031 8.210938 -7.238281 C 8.253906 -9.066406 7.109375 -10.386719 5.265625 -10.386719 L 1.160156 -10.386719 Z M 3.25 -8.3125 L 5.09375 -8.3125 C 5.6875 -8.3125 6.050781 -7.847656 6.050781 -7.269531 C 6.050781 -6.703125 5.6875 -6.222656 5.09375 -6.222656 L 3.25 -6.222656 Z M 3.25 -4.148438 L 5.09375 -4.148438 C 5.6875 -4.148438 6.136719 -3.699219 6.136719 -3.121094 C 6.136719 -2.539062 5.6875 -2.074219 5.09375 -2.074219 L 3.25 -2.074219 Z M 3.25 -4.148438" transform="translate(33.497844, 19.887077)"/></g></g></g><g fill="#293241" fill-opacity="1"><g><g><path d="M 8.648438 -0.636719 L 8.648438 -5.195312 L 6.542969 -5.195312 L 6.542969 -2.074219 C 6.355469 -2.046875 6.152344 -2.015625 5.964844 -2.015625 C 1.957031 -2.015625 1.769531 -8.210938 5.964844 -8.355469 C 7.066406 -8.386719 7.734375 -8.152344 8.140625 -7.980469 L 8.386719 -10.082031 C 8.199219 -10.140625 7.195312 -10.503906 5.964844 -10.460938 C -1.234375 -10.199219 -0.886719 0.0585938 5.964844 0.0585938 C 6.949219 0.0585938 7.847656 -0.1875 8.648438 -0.636719 Z M 8.648438 -0.636719" transform="translate(42.50537, 19.887077)"/></g></g></g><g fill="#293241" fill-opacity="1"><g><g><path d="M 3.234375 0 L 3.234375 -10.375 L 1.160156 -10.375 L 1.160156 0 Z M 3.234375 0" transform="translate(56.386529, 19.887077)"/></g></g></g><g fill="#293241" fill-opacity="1"><g><g><path d="M 3.234375 -5.644531 L 8.488281 0.21875 L 9.039062 0.21875 L 9.039062 -10.359375 L 6.949219 -10.359375 L 6.949219 -4.496094 L 1.710938 -10.589844 L 1.160156 -10.589844 L 1.160156 0 L 3.234375 0 Z M 3.234375 -5.644531" transform="translate(60.796012, 19.887077)"/></g></g></g><g fill="#293241" fill-opacity="1"><g><g><path d="M 4.949219 0 L 4.949219 -8.300781 L 7.53125 -8.300781 L 7.53125 -10.359375 L 0.289062 -10.359375 L 0.289062 -8.300781 L 2.871094 -8.300781 L 2.871094 0 Z M 4.949219 0" transform="translate(71.007438, 19.887077)"/></g></g></g><g fill="#293241" fill-opacity="1"><g><g><path d="M 6.527344 0 L 6.527344 -2.074219 L 3.234375 -2.074219 L 3.234375 -4.148438 L 5.964844 -4.148438 L 5.964844 -6.222656 L 3.234375 -6.222656 L 3.234375 -8.300781 L 6.355469 -8.300781 L 6.355469 -10.375 L 1.160156 -10.375 L 1.160156 0 Z M 6.527344 0" transform="translate(78.941605, 19.887077)"/></g></g></g><g fill="#293241" fill-opacity="1"><g><g><path d="M 6.324219 0 L 8.675781 0 L 6.269531 -4.28125 C 9.316406 -5.164062 8.953125 -10.375 5.253906 -10.375 L 1.160156 -10.375 L 1.160156 0 L 3.234375 0 L 3.234375 -3.960938 L 4.238281 -3.960938 Z M 3.234375 -5.976562 L 3.234375 -8.300781 L 5.0625 -8.300781 C 6.472656 -8.300781 6.472656 -5.976562 5.0625 -5.976562 Z M 3.234375 -5.976562" transform="translate(86.252054, 19.887077)"/></g></g></g><g fill="#293241" fill-opacity="1"><g><g><path d="M 3.234375 0 L 3.234375 -3.960938 L 5.238281 -3.960938 C 9.257812 -3.960938 9.269531 -10.359375 5.238281 -10.359375 L 1.160156 -10.359375 L 1.160156 0 Z M 3.234375 -5.976562 L 3.234375 -8.300781 L 5.0625 -8.300781 C 6.457031 -8.300781 6.457031 -5.976562 5.0625 -5.976562 Z M 3.234375 -5.976562" transform="translate(95.143537, 19.887077)"/></g></g></g><g fill="#293241" fill-opacity="1"><g><g><path d="M 6.324219 0 L 8.675781 0 L 6.269531 -4.28125 C 9.316406 -5.164062 8.953125 -10.375 5.253906 -10.375 L 1.160156 -10.375 L 1.160156 0 L 3.234375 0 L 3.234375 -3.960938 L 4.238281 -3.960938 Z M 3.234375 -5.976562 L 3.234375 -8.300781 L 5.0625 -8.300781 C 6.472656 -8.300781 6.472656 -5.976562 5.0625 -5.976562 Z M 3.234375 -5.976562" transform="translate(103.889972, 19.887077)"/></g></g></g><g fill="#293241" fill-opacity="1"><g><g><path d="M 6.527344 0 L 6.527344 -2.074219 L 3.234375 -2.074219 L 3.234375 -4.148438 L 5.964844 -4.148438 L 5.964844 -6.222656 L 3.234375 -6.222656 L 3.234375 -8.300781 L 6.355469 -8.300781 L 6.355469 -10.375 L 1.160156 -10.375 L 1.160156 0 Z M 6.527344 0" transform="translate(112.781455, 19.887077)"/></g></g></g><g fill="#293241" fill-opacity="1"><g><g><path d="M 4.949219 0 L 4.949219 -8.300781 L 7.53125 -8.300781 L 7.53125 -10.359375 L 0.289062 -10.359375 L 0.289062 -8.300781 L 2.871094 -8.300781 L 2.871094 0 Z M 4.949219 0" transform="translate(120.091904, 19.887077)"/></g></g></g><g fill="#293241" fill-opacity="1"><g><g><path d="M 6.527344 0 L 6.527344 -2.074219 L 3.234375 -2.074219 L 3.234375 -4.148438 L 5.964844 -4.148438 L 5.964844 -6.222656 L 3.234375 -6.222656 L 3.234375 -8.300781 L 6.355469 -8.300781 L 6.355469 -10.375 L 1.160156 -10.375 L 1.160156 0 Z M 6.527344 0" transform="translate(128.026071, 19.887077)"/></g></g></g><g fill="#293241" fill-opacity="1"><g><g><path d="M 6.324219 0 L 8.675781 0 L 6.269531 -4.28125 C 9.316406 -5.164062 8.953125 -10.375 5.253906 -10.375 L 1.160156 -10.375 L 1.160156 0 L 3.234375 0 L 3.234375 -3.960938 L 4.238281 -3.960938 Z M 3.234375 -5.976562 L 3.234375 -8.300781 L 5.0625 -8.300781 C 6.472656 -8.300781 6.472656 -5.976562 5.0625 -5.976562 Z M 3.234375 -5.976562" transform="translate(135.33652, 19.887077)"/></g></g></g><g clip-path="url(#5b4409b5c6)"><path fill="#6bc13b" fill-opacity="1" fill-rule="nonzero" d="M 21.804688 9.105469 C 21.804688 9.550781 21.722656 9.976562 21.550781 10.382812 C 21.382812 10.792969 21.140625 11.152344 20.824219 11.46875 C 20.511719 11.78125 20.148438 12.019531 19.738281 12.191406 C 19.328125 12.359375 18.902344 12.445312 18.457031 12.445312 C 18.011719 12.445312 17.585938 12.359375 17.175781 12.191406 C 16.765625 12.019531 16.402344 11.78125 16.085938 11.46875 C 15.773438 11.152344 15.53125 10.792969 15.363281 10.382812 C 15.191406 9.976562 15.105469 9.550781 15.105469 9.105469 C 15.105469 8.664062 15.191406 8.238281 15.363281 7.828125 C 15.53125 7.421875 15.773438 7.058594 16.085938 6.746094 C 16.402344 6.433594 16.765625 6.191406 17.175781 6.023438 C 17.585938 5.855469 18.011719 5.769531 18.457031 5.769531 C 18.902344 5.769531 19.328125 5.855469 19.738281 6.023438 C 20.148438 6.191406 20.511719 6.433594 20.824219 6.746094 C 21.140625 7.058594 21.382812 7.421875 21.550781 7.828125 C 21.722656 8.238281 21.804688 8.664062 21.804688 9.105469 Z M 21.804688 9.105469"/></g><path fill="#f2f2f2" fill-opacity="1" fill-rule="nonzero" d="M 19.574219 7.4375 L 17.898438 9.105469 L 17.339844 8.550781 L 16.503906 9.386719 L 17.898438 10.777344 L 20.410156 8.273438 Z M 19.574219 7.4375"/><path fill="#e2e7f6" fill-opacity="1" fill-rule="nonzero" d="M 12.59375 7.996094 L 12.59375 19.675781 C 12.59375 20.902344 11.59375 21.898438 10.359375 21.898438 C 9.128906 21.898438 8.128906 20.902344 8.128906 19.675781 L 8.128906 7.996094 Z M 12.59375 7.996094"/><path fill="#f2f2f2" fill-opacity="1" fill-rule="nonzero" d="M 8.964844 18.839844 C 8.964844 20.070312 9.964844 21.066406 11.199219 21.066406 C 11.601562 21.066406 11.976562 20.957031 12.300781 20.773438 C 12.488281 20.449219 12.59375 20.074219 12.59375 19.675781 L 12.59375 7.996094 L 8.964844 7.996094 Z M 8.964844 18.839844"/><path fill="#a72b25" fill-opacity="1" fill-rule="nonzero" d="M 12.59375 10.496094 L 12.59375 19.675781 C 12.59375 20.902344 11.59375 21.898438 10.359375 21.898438 C 9.128906 21.898438 8.128906 20.902344 8.128906 19.675781 L 8.128906 10.496094 L 8.390625 10.757812 C 8.578125 10.949219 8.835938 11.054688 9.105469 11.054688 C 9.371094 11.054688 9.628906 10.949219 9.820312 10.757812 L 9.882812 10.695312 C 10.011719 10.566406 10.183594 10.496094 10.359375 10.496094 C 10.539062 10.496094 10.710938 10.566406 10.835938 10.695312 L 10.902344 10.757812 C 11.089844 10.949219 11.347656 11.054688 11.617188 11.054688 C 11.886719 11.054688 12.140625 10.949219 12.332031 10.757812 Z M 12.59375 10.496094"/><path fill="#b52f28" fill-opacity="1" fill-rule="nonzero" d="M 11.617188 11.054688 C 11.347656 11.054688 11.089844 10.949219 10.902344 10.757812 L 10.835938 10.695312 C 10.710938 10.566406 10.539062 10.496094 10.359375 10.496094 C 10.183594 10.496094 10.011719 10.566406 9.882812 10.695312 L 9.820312 10.757812 C 9.628906 10.949219 9.371094 11.054688 9.105469 11.054688 C 9.058594 11.054688 9.011719 11.046875 8.964844 11.039062 L 8.964844 18.839844 C 8.964844 20.070312 9.964844 21.066406 11.199219 21.066406 C 11.601562 21.066406 11.976562 20.957031 12.300781 20.773438 C 12.488281 20.449219 12.59375 20.074219 12.59375 19.675781 L 12.59375 10.496094 L 12.332031 10.757812 C 12.140625 10.949219 11.886719 11.054688 11.617188 11.054688 Z M 11.617188 11.054688"/><path fill="#d23f34" fill-opacity="1" fill-rule="nonzero" d="M 15.128906 20.546875 C 14.78125 20.703125 14.394531 20.789062 13.988281 20.789062 C 12.449219 20.789062 11.199219 19.542969 11.199219 18.007812 C 11.199219 17.097656 11.441406 16.203125 11.90625 15.417969 L 13.988281 11.886719 L 16.074219 15.417969 C 16.320312 15.835938 16.503906 16.285156 16.625 16.75 L 15.523438 18.671875 C 15.25 19.148438 15.105469 19.683594 15.105469 20.230469 C 15.105469 20.339844 15.113281 20.441406 15.128906 20.546875 Z M 15.128906 20.546875"/><g clip-path="url(#79339e04c4)"><path fill="#e2514d" fill-opacity="1" fill-rule="nonzero" d="M 19.574219 20.230469 C 19.574219 19.683594 19.429688 19.148438 19.15625 18.671875 L 17.339844 15.503906 L 15.523438 18.671875 C 15.25 19.148438 15.105469 19.683594 15.105469 20.230469 C 15.105469 21.460938 16.105469 22.457031 17.339844 22.457031 C 18.574219 22.457031 19.574219 21.460938 19.574219 20.230469 Z M 19.574219 20.230469"/></g><g clip-path="url(#726b719d5d)"><path fill="#4fb5dc" fill-opacity="1" fill-rule="nonzero" d="M 7.289062 5.769531 L 13.429688 5.769531 L 13.429688 7.996094 L 7.289062 7.996094 Z M 7.289062 5.769531"/></g><g clip-path="url(#ee5b4e5b5f)"><path fill="#5ed3f2" fill-opacity="1" fill-rule="nonzero" d="M 8.964844 5.769531 L 13.429688 5.769531 L 13.429688 7.996094 L 8.964844 7.996094 Z M 8.964844 5.769531"/></g><path fill="#911919" fill-opacity="1" fill-rule="nonzero" d="M 11.476562 13.835938 C 11.476562 13.988281 11.421875 14.121094 11.3125 14.226562 C 11.203125 14.335938 11.074219 14.390625 10.917969 14.390625 C 10.765625 14.390625 10.632812 14.335938 10.523438 14.226562 C 10.414062 14.121094 10.359375 13.988281 10.359375 13.835938 C 10.359375 13.679688 10.414062 13.550781 10.523438 13.441406 C 10.632812 13.332031 10.765625 13.277344 10.917969 13.277344 C 11.074219 13.277344 11.203125 13.332031 11.3125 13.441406 C 11.421875 13.550781 11.476562 13.679688 11.476562 13.835938 Z M 11.476562 13.835938"/><path fill="#911919" fill-opacity="1" fill-rule="nonzero" d="M 10.359375 16.335938 C 10.359375 16.492188 10.304688 16.621094 10.195312 16.730469 C 10.089844 16.839844 9.957031 16.894531 9.800781 16.894531 C 9.648438 16.894531 9.515625 16.839844 9.40625 16.730469 C 9.296875 16.621094 9.242188 16.492188 9.242188 16.335938 C 9.242188 16.183594 9.296875 16.054688 9.40625 15.945312 C 9.515625 15.835938 9.648438 15.78125 9.800781 15.78125 C 9.957031 15.78125 10.089844 15.835938 10.195312 15.945312 C 10.304688 16.054688 10.359375 16.183594 10.359375 16.335938 Z M 10.359375 16.335938"/><path fill="#e2514d" fill-opacity="1" fill-rule="nonzero" d="M 8.964844 14.390625 L 9.523438 14.390625 L 9.523438 14.945312 L 8.964844 14.945312 Z M 8.964844 14.390625"/><path fill="#e2514d" fill-opacity="1" fill-rule="nonzero" d="M 9.242188 12.167969 L 9.800781 12.167969 L 9.800781 12.722656 L 9.242188 12.722656 Z M 9.242188 12.167969"/><path fill="#e2514d" fill-opacity="1" fill-rule="nonzero" d="M 11.199219 11.886719 L 11.757812 11.886719 L 11.757812 12.445312 L 11.199219 12.445312 Z M 11.199219 11.886719"/><path fill="#911919" fill-opacity="1" fill-rule="nonzero" d="M 13.429688 19.675781 C 12.660156 19.675781 12.035156 19.050781 12.035156 18.285156 L 12.59375 18.285156 C 12.59375 18.746094 12.96875 19.117188 13.429688 19.117188 Z M 13.429688 19.675781"/><path fill="#b52f28" fill-opacity="1" fill-rule="nonzero" d="M 17.339844 21.621094 C 16.570312 21.621094 15.945312 20.996094 15.945312 20.230469 L 16.503906 20.230469 C 16.503906 20.691406 16.878906 21.066406 17.339844 21.066406 Z M 17.339844 21.621094"/><path fill="#e2514d" fill-opacity="1" fill-rule="nonzero" d="M 8.964844 17.726562 L 9.523438 17.726562 L 9.523438 18.285156 L 8.964844 18.285156 Z M 8.964844 17.726562"/><path fill="#e2514d" fill-opacity="1" fill-rule="nonzero" d="M 9.800781 18.839844 L 10.359375 18.839844 L 10.359375 19.398438 L 9.800781 19.398438 Z M 9.800781 18.839844"/><path fill="#e2514d" fill-opacity="1" fill-rule="nonzero" d="M 10.640625 20.230469 L 11.199219 20.230469 L 11.199219 20.789062 L 10.640625 20.789062 Z M 10.640625 20.230469"/><path fill="#e2514d" fill-opacity="1" fill-rule="nonzero" d="M 8.964844 19.675781 L 9.523438 19.675781 L 9.523438 20.230469 L 8.964844 20.230469 Z M 8.964844 19.675781"/></svg>